  0
SECTION
  2
HEADER
  9
$ACADVER
  1
AC1009
  9
$FILLMODE
 70
0
  9
$EXTMIN
 10
-0.004000
 20
-0.004000
 30
0.000000
  9
$EXTMAX
 10
5.904000
 20
3.224051
 30
0.000000
  0
ENDSEC
  0
SECTION
  2
TABLES
  0
TABLE
  2
LTYPE
 70
1
  0
LTYPE
  2
CONTINUOUS
 70
64
  3
Solid line
 72
65
 73
0
 40
0
  0
ENDTAB
  0
TABLE
  2
LAYER
 70
255
  0
LAYER
  2
20
 70
64
 62
7
  6
CONTINUOUS
  0
ENDTAB
  0
ENDSEC
  0
SECTION
  2
BLOCKS
  0
BLOCK
  8
0
  2
RECT
 70
64
 10
0.000000
 20
0.000000
 30
0.000000
  3
RECT
  0
SOLID
  8
0
 10
-0.500000
 20
-0.500000
 30
0.000000
 11
0.500000
 21
-0.500000
 31
0.000000
 12
-0.500000
 22
0.500000
 32
0.000000
 13
0.500000
 23
0.500000
 33
0.000000
  0
ENDBLK
  8
0
  0
BLOCK
  8
0
  2
PIE
 70
64
 10
0.000000
 20
0.000000
 30
0.000000
  3
PIE
  0
CIRCLE
  8
0
 10
0.000000
 20
0.000000
 30
0.000000
 40
0.500000
  0
ENDBLK
  8
0
  0
BLOCK
  8
0
  2
OCTAGONP
 70
64
 10
0.000000
 20
0.000000
 30
0.000000
  3
OCTAGONP
  0
POLYLINE
  8
0
 66
1
 10
0.000000
 20
0.000000
 30
0.000000
 40
0.000000
 41
0.000000
 70
1
  0
VERTEX
  8
0
 10
-0.500000
 20
-0.207107
 30
0.000000
  0
VERTEX
  8
0
 10
-0.500000
 20
0.207107
 30
0.000000
  0
VERTEX
  8
0
 10
-0.207107
 20
0.500000
 30
0.000000
  0
VERTEX
  8
0
 10
0.207107
 20
0.500000
 30
0.000000
  0
VERTEX
  8
0
 10
0.500000
 20
0.207107
 30
0.000000
  0
VERTEX
  8
0
 10
0.500000
 20
-0.207107
 30
0.000000
  0
VERTEX
  8
0
 10
0.207107
 20
-0.500000
 30
0.000000
  0
VERTEX
  8
0
 10
-0.207107
 20
-0.500000
 30
0.000000
  0
SEQEND
  8
0
  0
ENDBLK
  8
0
  0
BLOCK
  8
0
  2
SQUAREP
 70
64
 10
0.000000
 20
0.000000
 30
0.000000
  3
SQUAREP
  0
SOLID
  8
0
 10
-0.500000
 20
-0.500000
 30
0.000000
 11
0.500000
 21
-0.500000
 31
0.000000
 12
-0.500000
 22
0.500000
 32
0.000000
 13
0.500000
 23
0.500000
 33
0.000000
  0
ENDBLK
  8
0
  0
BLOCK
  8
0
  2
ROUNDP
 70
64
 10
0.000000
 20
0.000000
 30
0.000000
  3
ROUNDP
  0
CIRCLE
  8
0
 10
0.000000
 20
0.000000
 30
0.000000
 40
0.500000
  0
ENDBLK
  8
0
  0
BLOCK
  8
0
  2
ANNULUSP
 70
64
 10
0.000000
 20
0.000000
 30
0.000000
  3
ANNULUSP
  0
CIRCLE
  8
0
 10
0.000000
 20
0.000000
 30
0.000000
 40
0.500000
  0
ENDBLK
  8
0
  0
BLOCK
  8
0
  2
THERMALP
 70
64
 10
0.000000
 20
0.000000
 30
0.000000
  3
THERMALP
  0
LINE
  8
0
 10
-0.237868
 20
0.450000
 30
0.000000
 11
0.237868
 21
0.450000
 31
0.000000
  0
LINE
  8
0
 10
0.450000
 20
0.237868
 30
0.000000
 11
0.450000
 21
-0.237868
 31
0.000000
  0
LINE
  8
0
 10
0.237868
 20
-0.450000
 30
0.000000
 11
-0.237868
 21
-0.450000
 31
0.000000
  0
LINE
  8
0
 10
-0.450000
 20
-0.237868
 30
0.000000
 11
-0.450000
 21
0.237868
 31
0.000000
  0
ENDBLK
  8
0
  0
BLOCK
  8
0
  2
OCTAGONV
 70
64
 10
0.000000
 20
0.000000
 30
0.000000
  3
OCTAGONV
  0
POLYLINE
  8
0
 66
1
 10
0.000000
 20
0.000000
 30
0.000000
 40
0.000000
 41
0.000000
 70
1
  0
VERTEX
  8
0
 10
-0.500000
 20
-0.207107
 30
0.000000
  0
VERTEX
  8
0
 10
-0.500000
 20
0.207107
 30
0.000000
  0
VERTEX
  8
0
 10
-0.207107
 20
0.500000
 30
0.000000
  0
VERTEX
  8
0
 10
0.207107
 20
0.500000
 30
0.000000
  0
VERTEX
  8
0
 10
0.500000
 20
0.207107
 30
0.000000
  0
VERTEX
  8
0
 10
0.500000
 20
-0.207107
 30
0.000000
  0
VERTEX
  8
0
 10
0.207107
 20
-0.500000
 30
0.000000
  0
VERTEX
  8
0
 10
-0.207107
 20
-0.500000
 30
0.000000
  0
SEQEND
  8
0
  0
ENDBLK
  8
0
  0
BLOCK
  8
0
  2
SQUAREV
 70
64
 10
0.000000
 20
0.000000
 30
0.000000
  3
SQUAREV
  0
SOLID
  8
0
 10
-0.500000
 20
-0.500000
 30
0.000000
 11
0.500000
 21
-0.500000
 31
0.000000
 12
-0.500000
 22
0.500000
 32
0.000000
 13
0.500000
 23
0.500000
 33
0.000000
  0
ENDBLK
  8
0
  0
BLOCK
  8
0
  2
ROUNDV
 70
64
 10
0.000000
 20
0.000000
 30
0.000000
  3
ROUNDV
  0
CIRCLE
  8
0
 10
0.000000
 20
0.000000
 30
0.000000
 40
0.500000
  0
ENDBLK
  8
0
  0
BLOCK
  8
0
  2
ANNULUSV
 70
64
 10
0.000000
 20
0.000000
 30
0.000000
  3
ANNULUSV
  0
CIRCLE
  8
0
 10
0.000000
 20
0.000000
 30
0.000000
 40
0.500000
  0
ENDBLK
  8
0
  0
BLOCK
  8
0
  2
THERMALV
 70
64
 10
0.000000
 20
0.000000
 30
0.000000
  3
THERMALV
  0
LINE
  8
0
 10
-0.237868
 20
0.450000
 30
0.000000
 11
0.237868
 21
0.450000
 31
0.000000
  0
LINE
  8
0
 10
0.450000
 20
0.237868
 30
0.000000
 11
0.450000
 21
-0.237868
 31
0.000000
  0
LINE
  8
0
 10
0.237868
 20
-0.450000
 30
0.000000
 11
-0.237868
 21
-0.450000
 31
0.000000
  0
LINE
  8
0
 10
-0.450000
 20
-0.237868
 30
0.000000
 11
-0.450000
 21
0.237868
 31
0.000000
  0
ENDBLK
  8
0
  0
ENDSEC
  0
SECTION
  2
ENTITIES
  0
CIRCLE
  8
20
 10
1.550000
 20
0.700000
 30
0.000000
 40
0.060000
  0
CIRCLE
  8
20
 10
1.550000
 20
2.700000
 30
0.000000
 40
0.060000
  0
CIRCLE
  8
20
 10
2.550000
 20
2.700000
 30
0.000000
 40
0.060000
  0
CIRCLE
  8
20
 10
2.550000
 20
0.700000
 30
0.000000
 40
0.060000
  0
CIRCLE
  8
20
 10
0.150000
 20
0.700000
 30
0.000000
 40
0.060000
  0
CIRCLE
  8
20
 10
0.150000
 20
2.700000
 30
0.000000
 40
0.060000
  0
CIRCLE
  8
20
 10
1.150000
 20
2.700000
 30
0.000000
 40
0.060000
  0
CIRCLE
  8
20
 10
1.150000
 20
0.700000
 30
0.000000
 40
0.060000
  0
CIRCLE
  8
20
 10
2.950000
 20
0.700000
 30
0.000000
 40
0.060000
  0
CIRCLE
  8
20
 10
2.950000
 20
2.700000
 30
0.000000
 40
0.060000
  0
CIRCLE
  8
20
 10
3.950000
 20
2.700000
 30
0.000000
 40
0.060000
  0
CIRCLE
  8
20
 10
3.950000
 20
0.700000
 30
0.000000
 40
0.060000
  0
CIRCLE
  8
20
 10
4.350000
 20
1.900000
 30
0.000000
 40
0.060000
  0
CIRCLE
  8
20
 10
4.350000
 20
2.650000
 30
0.000000
 40
0.060000
  0
CIRCLE
  8
20
 10
5.700000
 20
2.650000
 30
0.000000
 40
0.060000
  0
CIRCLE
  8
20
 10
5.700000
 20
1.900000
 30
0.000000
 40
0.060000
  0
ARC
  8
20
 10
0.472441
 20
0.118110
 30
0.000000
 40
0.118110
 50
180.000000
 51
270.000000
  0
LINE
  8
20
 10
0.472441
 20
0.000000
 30
0.000000
 11
2.598425
 21
0.000000
 31
0.000000
  0
ARC
  8
20
 10
2.598425
 20
0.118110
 30
0.000000
 40
0.118110
 50
270.000000
 51
0.000000
  0
ARC
  8
20
 10
3.307087
 20
0.118110
 30
0.000000
 40
0.118110
 50
180.000000
 51
270.000000
  0
LINE
  8
20
 10
3.307087
 20
0.000000
 30
0.000000
 11
5.433071
 21
0.000000
 31
0.000000
  0
ARC
  8
20
 10
5.433071
 20
0.118110
 30
0.000000
 40
0.118110
 50
270.000000
 51
0.000000
  0
ARC
  8
20
 10
5.748031
 20
0.118110
 30
0.000000
 40
0.196850
 50
90.000000
 51
180.000000
  0
ARC
  8
20
 10
5.751496
 20
0.463465
 30
0.000000
 40
0.148544
 50
268.663543
 51
358.663543
  0
LINE
  8
20
 10
5.900000
 20
0.460000
 30
0.000000
 11
5.900000
 21
2.770000
 31
0.000000
  0
ARC
  8
20
 10
5.752323
 20
2.765709
 30
0.000000
 40
0.147740
 50
1.664485
 51
91.664485
  0
ARC
  8
20
 10
5.748031
 20
3.110236
 30
0.000000
 40
0.196850
 50
180.000000
 51
270.000000
  0
ARC
  8
20
 10
5.440709
 20
3.109528
 30
0.000000
 40
0.110475
 50
0.367537
 51
90.367537
  0
LINE
  8
20
 10
5.440000
 20
3.220000
 30
0.000000
 11
3.300000
 21
3.220000
 31
0.000000
  0
ARC
  8
20
 10
3.299370
 20
3.109606
 30
0.000000
 40
0.110396
 50
89.673066
 51
179.673066
  0
ARC
  8
20
 10
2.603386
 20
3.106850
 30
0.000000
 40
0.113200
 50
1.713976
 51
91.713976
  0
LINE
  8
20
 10
2.600000
 20
3.220000
 30
0.000000
 11
0.470000
 21
3.220000
 31
0.000000
  0
ARC
  8
20
 10
0.467047
 20
3.107283
 30
0.000000
 40
0.112755
 50
88.499406
 51
178.499406
  0
ARC
  8
20
 10
0.157480
 20
3.110236
 30
0.000000
 40
0.196850
 50
270.000000
 51
0.000000
  0
ARC
  8
20
 10
0.157480
 20
2.755906
 30
0.000000
 40
0.157480
 50
90.000000
 51
180.000000
  0
LINE
  8
20
 10
0.000000
 20
2.755906
 30
0.000000
 11
0.000000
 21
0.472441
 31
0.000000
  0
ARC
  8
20
 10
0.157480
 20
0.472441
 30
0.000000
 40
0.157480
 50
180.000000
 51
270.000000
  0
ARC
  8
20
 10
0.157480
 20
0.118110
 30
0.000000
 40
0.196850
 50
0.000000
 51
90.000000
  0
ARC
  8
20
 10
2.913386
 20
0.118110
 30
0.000000
 40
0.196850
 50
90.000000
 51
180.000000
  0
LINE
  8
20
 10
2.913386
 20
0.314961
 30
0.000000
 11
2.992126
 21
0.314961
 31
0.000000
  0
ARC
  8
20
 10
2.992126
 20
0.118110
 30
0.000000
 40
0.196850
 50
0.000000
 51
90.000000
  0
ARC
  8
20
 10
2.913386
 20
3.110236
 30
0.000000
 40
0.196850
 50
180.000000
 51
270.000000
  0
LINE
  8
20
 10
2.913386
 20
2.913386
 30
0.000000
 11
2.992126
 21
2.913386
 31
0.000000
  0
ARC
  8
20
 10
2.992126
 20
3.110236
 30
0.000000
 40
0.196850
 50
270.000000
 51
0.000000
  0
CIRCLE
  8
20
 10
2.519685
 20
0.236220
 30
0.000000
 40
0.062500
  0
CIRCLE
  8
20
 10
3.385827
 20
0.236220
 30
0.000000
 40
0.062500
  0
CIRCLE
  8
20
 10
5.393701
 20
0.236220
 30
0.000000
 40
0.062500
  0
CIRCLE
  8
20
 10
0.511811
 20
0.236220
 30
0.000000
 40
0.062500
  0
CIRCLE
  8
20
 10
2.519685
 20
2.992126
 30
0.000000
 40
0.062500
  0
CIRCLE
  8
20
 10
3.385827
 20
2.992126
 30
0.000000
 40
0.062500
  0
CIRCLE
  8
20
 10
5.393701
 20
2.992126
 30
0.000000
 40
0.062500
  0
CIRCLE
  8
20
 10
0.511811
 20
2.992126
 30
0.000000
 40
0.062500
  0
ENDSEC
  0
EOF
